<?xml version="1.0"?>
<svg xmlns="http://www.w3.org/2000/svg" xmlns:xlink="http://www.w3.org/1999/xlink" xmlns:svgjs="http://svgjs.com/svgjs" version="1.1" width="512" height="512" x="0" y="0" viewBox="0 0 512.001 512.001" style="enable-background:new 0 0 512 512" xml:space="preserve" class=""><g>
<g xmlns="http://www.w3.org/2000/svg">
	<g>
		<path d="M372.693,479.067c-4.461-23.144-15.577-44.325-32.146-61.25c-2.625-2.682-6.608-3.509-10.087-2.104    c-3.478,1.409-5.76,4.778-5.779,8.53l-0.333,66.913c-0.026,5.11,4.097,9.274,9.207,9.299c0.016,0,0.031,0,0.047,0    c5.088,0,9.227-4.112,9.252-9.207l0.197-39.678c5.474,9.587,9.357,20.034,11.471,31.002c0.969,5.016,5.82,8.303,10.837,7.333    C370.377,488.937,373.661,484.084,372.693,479.067z" fill="#ffffff" data-original="#000000" style="" class=""/>
	</g>
</g>
<g xmlns="http://www.w3.org/2000/svg">
	<g>
		<path d="M187.318,424.243c-0.017-3.752-2.3-7.122-5.778-8.53c-3.477-1.411-7.462-0.58-10.087,2.104    c-16.569,16.927-27.685,38.108-32.148,61.25c-0.967,5.018,2.316,9.87,7.333,10.837c5.014,0.97,9.87-2.316,10.837-7.333    c2.115-10.968,5.998-21.413,11.471-31.002l0.197,39.678c0.026,5.095,4.164,9.207,9.252,9.207c0.016,0,0.032,0,0.047,0    c5.11-0.026,9.232-4.19,9.207-9.299L187.318,424.243z" fill="#ffffff" data-original="#000000" style="" class=""/>
	</g>
</g>
<g xmlns="http://www.w3.org/2000/svg">
	<g>
		<path d="M492.8,171.216c-12.217-12.096-28.384-18.743-45.562-18.743c-0.11,0-0.222,0.001-0.333,0.001    c-6.564,0.032-12.947,1.024-19.079,2.957C407.262,91.105,358.948,38.293,302.482,19.318c-15.049-5.058-30.435-7.609-45.876-7.742    c-0.201-0.014-0.401-0.031-0.606-0.031c-0.097,0-0.191,0.011-0.287,0.015c-0.247,0-0.494-0.014-0.74-0.014    c-1.328,0.006-2.653,0.032-3.974,0.076c-0.015,0-0.03,0.001-0.044,0.001C168.737,14.344,105.982,85.28,83.573,157.151    c-6.052-1.843-12.337-2.773-18.791-2.773c-0.11,0-0.221,0.001-0.332,0.001c-17.739,0.089-34.259,7.204-46.516,20.032    c-12.251,12.822-18.6,29.664-17.878,47.421c1.335,32.844,28.073,60.067,60.87,61.975c8.211,0.475,16.395-0.6,24.117-3.142    c14.076,38.561,40.838,71.292,76.192,92.905c0.964,0.589,1.935,1.166,2.91,1.737c-5.658,4.174-11.046,8.721-16.077,13.59    c-20.665,19.993-35.445,45.167-42.744,72.802c-1.305,4.941,1.643,10.003,6.583,11.308c0.792,0.21,1.587,0.31,2.369,0.31    c4.099,0,7.844-2.744,8.941-6.893c6.436-24.371,19.481-46.58,37.719-64.227c6.228-6.027,13.068-11.505,20.33-16.279    c0.1-0.067,0.199-0.133,0.295-0.204l0.172-0.11c0.38-0.248,0.769-0.49,1.152-0.735c1.789,0.787,3.586,1.553,5.395,2.279    l0.635,0.253c0.313,0.126,0.629,0.242,0.945,0.359l0.317,0.117c21.014,8.161,43.146,12.298,65.803,12.298    c0.307,0,0.617-0.001,0.925-0.002c25.276-0.127,49.705-5.337,72.262-15.27c0.363,0.232,0.73,0.463,1.088,0.695l0.18,0.116    c0.099,0.07,0.197,0.137,0.299,0.205c7.262,4.775,14.102,10.254,20.331,16.281c18.238,17.646,31.282,39.855,37.719,64.226    c1.097,4.149,4.841,6.893,8.941,6.893c0.782,0,1.577-0.1,2.369-0.31c4.941-1.305,7.889-6.367,6.583-11.308    c-7.299-27.633-22.079-52.809-42.744-72.801c-5.025-4.862-10.404-9.404-16.053-13.572c6.414-3.77,12.635-7.955,18.632-12.546    c27.926-21.381,49.336-50.867,61.053-83.827c6.344,2.02,12.999,3.063,19.671,3.063c0.104,0,0.211-0.001,0.316-0.001    c35.714-0.179,64.626-29.379,64.448-65.094C511.912,199.62,505.095,183.389,492.8,171.216z M275.47,131.218h10.768    c7.299,0,13.65-5.193,15.102-12.349c1.45-7.142,7.806-12.326,15.113-12.326c7.307,0,13.662,5.184,15.113,12.326    c1.452,7.156,7.805,12.349,15.102,12.349h43.242c-0.057,11.188-3.662,22.373-10.535,31.765    c-10.12,13.827-25.833,21.757-43.113,21.757h-58.248c7.333-6.293,11.913-15.602,11.913-25.763    C289.928,147.683,284.282,137.43,275.47,131.218z M252.904,63.67c7.154-1.452,12.349-7.803,12.349-15.101v-9.265v-8.856    c10.508,0.823,21.023,2.947,31.332,6.413c35.791,12.025,68.005,39.332,90.546,74.868c-0.03,0.324-0.038,0.653-0.033,0.982h-37.996    c-4.089-14.44-17.433-24.675-32.649-24.675s-28.559,10.235-32.649,24.675h-18.552v-3.714c0-7.298-5.193-13.649-12.349-15.101    c-7.142-1.451-12.326-7.807-12.326-15.113C240.577,71.477,245.762,65.121,252.904,63.67z M246.747,30.381v8.922v6.831    c-14.44,4.089-24.675,17.434-24.675,32.649s10.235,28.559,24.675,32.649v1.279h-20.985c-7.298,0-13.649,5.193-15.102,12.347    c-1.45,7.143-7.806,12.328-15.113,12.328c-7.307,0-13.662-5.184-15.113-12.329c-1.453-7.153-7.805-12.346-15.102-12.346h-40.429    c0.006-0.363-0.009-0.723-0.046-1.08C152.069,68.469,194.975,34.034,246.747,30.381z M162.898,131.218    c4.089,14.44,17.432,24.675,32.647,24.675c15.216,0,28.56-10.235,32.647-24.675h18.759c1.013,6.227,5.804,11.36,12.141,12.646    c7.142,1.451,12.326,7.807,12.326,15.113c0,7.306-5.184,13.663-12.326,15.113c-5.644,1.145-10.056,5.346-11.672,10.65h-71.684    c-17.279,0-32.993-7.93-43.113-21.757c-6.873-9.392-10.478-20.578-10.535-31.765H162.898z M447.459,263.508    c-5.168,0.031-10.154-0.791-14.926-2.403c3.447-14.996,5.445-30.509,5.445-42.91c0-5.103,4.15-9.253,9.253-9.253    s9.253,4.15,9.253,9.253c0,5.111,4.143,9.253,9.253,9.253s9.253-4.142,9.253-9.253c0-15.306-12.452-27.759-27.759-27.759    s-27.759,12.453-27.759,27.759c0,13.347-2.633,30.923-7.045,47.016c-0.127,0.464-0.205,0.928-0.258,1.392    c-20.924,67.53-84.413,114.707-155.353,115.06c-20.597,0.133-40.811-3.611-59.998-11.064l-0.554-0.206    c-0.173-0.064-0.347-0.127-0.54-0.204l-0.55-0.22c-8.383-3.366-16.554-7.468-24.285-12.193    c-34.111-20.852-59.307-53.211-71.057-91.198c-0.054-0.455-0.131-0.913-0.255-1.368c-4.412-16.093-7.045-33.669-7.045-47.016    c0-15.306-12.452-27.759-27.759-27.759s-27.759,12.453-27.759,27.759c0,5.111,4.143,9.253,9.253,9.253s9.253-4.142,9.253-9.253    c0-5.103,4.15-9.253,9.253-9.253s9.253,4.15,9.253,9.253c0,12.884,2.154,29.127,5.853,44.661    c-5.7,1.968-11.765,2.829-17.875,2.475c-23.414-1.362-42.501-20.8-43.455-44.252c-0.516-12.693,4.018-24.728,12.769-33.887    c8.756-9.164,20.555-14.247,33.226-14.31c7.326-0.009,14.409,1.615,20.963,4.909c2.498,1.256,5.43,1.313,7.977,0.159    c2.546-1.155,4.434-3.399,5.136-6.106c1.96-7.569,4.418-15.165,7.338-22.693c2.292,8.784,6.214,17.213,11.737,24.759    c13.644,18.642,34.801,29.333,58.046,29.333h80.261h80.261c23.246,0,44.402-10.692,58.046-29.333    c5.501-7.517,9.415-15.913,11.712-24.663c2.641,6.852,4.962,13.868,6.893,21.03c0.728,2.699,2.638,4.925,5.195,6.054    c2.556,1.129,5.489,1.044,7.975-0.237c6.523-3.361,13.559-5.082,20.913-5.118c0.079,0,0.158-0.001,0.237-0.001    c12.27,0,23.819,4.75,32.544,13.39c8.782,8.694,13.651,20.288,13.713,32.646C493.62,242.525,472.968,263.381,447.459,263.508z" fill="#ffffff" data-original="#000000" style="" class=""/>
	</g>
</g>
<g xmlns="http://www.w3.org/2000/svg">
	<g>
		<path d="M212.819,208.944c-5.11,0-9.253,4.142-9.253,9.253c0,5.103-4.15,9.253-9.253,9.253s-9.253-4.15-9.253-9.253    c0-5.111-4.143-9.253-9.253-9.253s-9.253,4.142-9.253,9.253c0,15.306,12.452,27.759,27.759,27.759s27.759-12.453,27.759-27.759    C222.073,213.085,217.93,208.944,212.819,208.944z" fill="#ffffff" data-original="#000000" style="" class=""/>
	</g>
</g>
<g xmlns="http://www.w3.org/2000/svg">
	<g>
		<path d="M336.194,208.944c-5.11,0-9.253,4.142-9.253,9.253c0,5.103-4.15,9.253-9.253,9.253c-5.103,0-9.253-4.15-9.253-9.253    c0-5.111-4.143-9.253-9.253-9.253s-9.253,4.142-9.253,9.253c0,15.306,12.452,27.759,27.759,27.759s27.759-12.453,27.759-27.759    C345.447,213.085,341.304,208.944,336.194,208.944z" fill="#ffffff" data-original="#000000" style="" class=""/>
	</g>
</g>
<g xmlns="http://www.w3.org/2000/svg">
</g>
<g xmlns="http://www.w3.org/2000/svg">
</g>
<g xmlns="http://www.w3.org/2000/svg">
</g>
<g xmlns="http://www.w3.org/2000/svg">
</g>
<g xmlns="http://www.w3.org/2000/svg">
</g>
<g xmlns="http://www.w3.org/2000/svg">
</g>
<g xmlns="http://www.w3.org/2000/svg">
</g>
<g xmlns="http://www.w3.org/2000/svg">
</g>
<g xmlns="http://www.w3.org/2000/svg">
</g>
<g xmlns="http://www.w3.org/2000/svg">
</g>
<g xmlns="http://www.w3.org/2000/svg">
</g>
<g xmlns="http://www.w3.org/2000/svg">
</g>
<g xmlns="http://www.w3.org/2000/svg">
</g>
<g xmlns="http://www.w3.org/2000/svg">
</g>
<g xmlns="http://www.w3.org/2000/svg">
</g>
</g></svg>
